<?xml version="1.0" standalone="no"?>
<!DOCTYPE svg PUBLIC "-//W3C//DTD SVG 20010904//EN"
 "http://www.w3.org/TR/2001/REC-SVG-20010904/DTD/svg10.dtd">
<svg version="1.0" xmlns="http://www.w3.org/2000/svg"
 width="1500.000000pt" height="648.000000pt" viewBox="0 0 1500.000000 648.000000"
 preserveAspectRatio="xMidYMid meet">

<g transform="translate(0.000000,648.000000) scale(0.100000,-0.100000)"
fill="#000000" stroke="none">
<path d="M7 6475 c-4 -5 -7 -39 -7 -76 l0 -67 158 -6 c224 -9 393 -25 498 -46
265 -52 370 -192 405 -536 17 -159 25 -4468 9 -4816 -16 -361 -47 -498 -136
-597 -79 -87 -161 -122 -349 -146 -147 -19 -443 -45 -507 -45 l-48 0 0 -70 0
-70 3490 0 3490 0 0 1415 0 1415 -64 0 c-40 0 -68 -5 -74 -13 -6 -7 -25 -53
-43 -103 -134 -383 -420 -916 -709 -1324 -423 -596 -828 -990 -1130 -1101
-177 -64 -800 -106 -1607 -109 l-123 0 0 1526 0 1526 178 -7 c282 -10 403 -35
567 -116 191 -93 337 -249 458 -489 135 -268 207 -561 207 -847 l0 -93 85 0
85 0 0 1615 0 1615 -85 0 -85 0 0 -94 c0 -191 -48 -454 -115 -628 -175 -455
-434 -694 -825 -762 -91 -16 -459 -36 -465 -26 -6 13 17 2896 24 2903 11 11
623 -9 863 -28 393 -31 446 -40 586 -96 313 -124 751 -506 1149 -1002 267
-331 544 -779 738 -1190 l69 -147 156 2 155 3 3 668 2 668 66 -3 66 -3 169
-420 c93 -231 209 -519 258 -640 357 -886 1014 -2518 1121 -2780 49 -121 184
-454 299 -740 115 -286 217 -537 225 -558 l16 -37 274 0 274 0 52 148 c28 81
220 644 427 1252 206 608 517 1521 690 2030 303 890 471 1393 548 1643 l37
117 99 0 99 0 -6 -107 c-3 -60 -8 -117 -11 -128 -4 -11 -9 -947 -13 -2080 -5
-1379 -11 -2096 -18 -2170 -21 -207 -60 -340 -118 -405 -70 -77 -226 -121
-492 -139 -87 -6 -187 -14 -224 -17 l-68 -6 0 -69 0 -69 2031 0 2030 0 -2 69
-2 70 -51 6 c-28 3 -135 12 -238 20 -201 16 -264 26 -343 52 -232 75 -291 210
-314 718 -15 306 -15 4299 -1 4595 16 340 46 483 123 587 20 28 54 62 76 77
108 75 372 125 704 133 l197 6 0 75 0 75 -1596 -5 c-1352 -4 -1598 -7 -1604
-19 -4 -8 -72 -198 -150 -424 -78 -225 -194 -558 -257 -740 -63 -181 -150
-431 -193 -555 -43 -124 -129 -369 -190 -545 -61 -176 -149 -428 -195 -560
-239 -688 -345 -988 -350 -993 -3 -3 -7 -3 -9 -1 -5 6 -216 547 -278 714 -16
44 -70 184 -119 310 -50 127 -130 334 -179 460 -49 127 -138 356 -198 510 -60
154 -150 386 -200 515 -50 129 -136 350 -191 490 -54 140 -147 379 -206 530
-59 151 -110 281 -115 289 -6 11 -717 14 -4476 18 -2458 3 -4472 2 -4477 -2z"/>
</g>
</svg>
